<?xml version="1.0" standalone="no"?>
<!DOCTYPE svg PUBLIC "-//W3C//DTD SVG 20010904//EN"
 "http://www.w3.org/TR/2001/REC-SVG-20010904/DTD/svg10.dtd">
<svg version="1.0" xmlns="http://www.w3.org/2000/svg"
 width="500.000000pt" height="500.000000pt" viewBox="0 0 500.000000 500.000000"
 preserveAspectRatio="xMidYMid meet">
<metadata>
Created by potrace 1.14, written by Peter Selinger 2001-2017
</metadata>
<g transform="translate(0.000000,500.000000) scale(0.100000,-0.100000)"
fill="#000000" stroke="none">
<path d="M0 2500 l0 -2500 2500 0 2500 0 0 2500 0 2500 -2500 0 -2500 0 0
-2500z m1137 617 l118 -74 3 -130 3 -131 129 -79 130 -78 0 -145 0 -146 -117
-71 c-65 -39 -123 -73 -130 -75 -6 -2 -68 31 -137 72 l-125 75 -3 130 -2 130
-6 -132 -5 -133 -115 -70 -115 -70 -5 142 -6 143 -2 -147 -2 -147 -125 75
-125 75 0 148 0 148 130 79 130 79 0 130 0 130 118 72 c64 39 122 72 129 72 6
1 65 -32 130 -72z m2213 -466 c0 -26 -4 -30 -32 -33 -57 -5 -48 -57 10 -58 18
0 22 -6 22 -30 0 -28 -3 -30 -35 -30 l-35 0 0 -100 0 -100 -35 0 -35 0 0 99 0
99 -30 6 c-24 4 -30 11 -30 30 0 19 6 25 27 28 23 2 29 9 33 38 10 61 32 78
103 79 34 1 37 -1 37 -28z m108 -13 c4 -37 -31 -57 -59 -32 -33 30 -15 67 31
62 19 -2 26 -10 28 -30z m422 13 c15 -28 -21 -71 -47 -55 -20 12 -28 37 -19
60 8 21 53 17 66 -5z m-2094 -20 c129 -59 137 -233 14 -301 -36 -19 -63 -25
-137 -28 l-93 -4 0 176 0 176 88 0 c63 0 98 -6 128 -19z m1024 -156 l0 -175
-40 0 -40 0 0 175 0 175 40 0 40 0 0 -175z m1243 93 c7 -4 25 -8 40 -8 25 0
28 -3 25 -27 -3 -24 -8 -28 -40 -31 l-38 -3 0 -64 c0 -67 13 -88 50 -78 12 3
19 -3 22 -22 7 -35 -30 -52 -83 -36 -46 14 -59 43 -59 130 0 65 -1 69 -25 75
-18 5 -25 13 -25 31 0 20 5 25 25 25 22 0 25 4 25 35 0 30 4 35 33 43 31 8 32
8 35 -27 2 -20 9 -39 15 -43z m-1733 32 l0 -40 40 0 c36 0 40 -2 40 -25 0 -22
-4 -25 -40 -25 l-40 0 0 -68 c0 -73 10 -92 47 -92 18 0 23 -6 23 -25 0 -22 -4
-25 -39 -25 -24 0 -48 8 -65 21 -24 19 -26 26 -26 105 0 83 0 84 -25 84 -20 0
-25 5 -25 25 0 20 5 25 25 25 22 0 25 4 25 34 0 24 5 36 18 39 38 10 42 7 42
-33z m734 -40 c48 -18 66 -64 66 -167 l0 -93 -35 0 -35 0 0 75 c0 111 -25 148
-86 125 -23 -9 -24 -13 -24 -105 l0 -95 -35 0 -35 0 0 130 0 130 50 -1 c28 -1
53 1 57 4 9 10 48 8 77 -3z m679 -30 c26 -29 27 -35 27 -130 l0 -100 -35 0
-35 0 0 85 c0 72 -3 88 -20 105 -23 23 -30 24 -65 8 -24 -11 -25 -14 -25 -105
l0 -93 -35 0 -35 0 0 131 0 132 44 -5 c24 -3 50 -1 58 4 26 18 92 1 121 -32z
m591 26 c40 -17 72 -59 81 -109 l7 -37 -101 0 c-99 0 -101 0 -91 -20 16 -30
57 -43 94 -30 25 9 33 7 50 -10 20 -20 20 -20 1 -34 -35 -26 -99 -30 -142 -10
-104 52 -111 198 -10 248 40 19 68 20 111 2z m-2190 -17 c25 -20 26 -24 26
-130 l0 -109 -30 0 c-16 0 -30 5 -30 10 0 7 -7 7 -21 -1 -13 -6 -42 -9 -68 -6
-77 9 -106 73 -56 123 23 23 33 25 85 22 56 -3 60 -1 60 18 0 35 -24 46 -87
42 -49 -2 -58 0 -61 15 -8 40 135 53 182 16z m487 8 c31 -23 39 -56 39 -151
l0 -96 -29 0 c-16 0 -31 5 -33 11 -3 9 -9 9 -25 0 -62 -32 -143 4 -143 64 0
53 39 78 113 73 53 -4 57 -3 57 18 0 36 -24 47 -85 41 -48 -5 -56 -3 -65 14
-9 16 -7 21 12 29 34 13 140 11 159 -3z m839 -117 l0 -130 -35 0 -35 0 0 130
0 130 35 0 35 0 0 -130z m420 0 l0 -130 -35 0 -35 0 0 130 0 130 35 0 35 0 0
-130z"/>
<path d="M1004 2755 c0 -71 1 -99 3 -62 2 37 2 96 0 130 -2 34 -3 4 -3 -68z"/>
<path d="M1640 2475 l0 -115 41 0 c107 0 168 84 124 170 -23 44 -53 60 -112
60 l-53 0 0 -115z"/>
<path d="M4228 2488 l-23 -23 59 -3 c69 -4 79 3 47 29 -31 25 -56 24 -83 -3z"/>
<path d="M2002 2398 c-31 -31 8 -64 64 -53 30 5 34 10 34 35 0 29 -2 30 -43
30 -24 0 -48 -5 -55 -12z"/>
<path d="M2493 2394 c-9 -24 10 -48 40 -52 38 -5 69 15 65 41 -3 19 -10 22
-51 25 -37 2 -49 -1 -54 -14z"/>
</g>
</svg>
